<?xml version="1.0" encoding="utf-8"?>
<!-- Generator: Adobe Illustrator 21.0.2, SVG Export Plug-In . SVG Version: 6.00 Build 0)  -->
<svg version="1.1" id="Camada_1" xmlns="http://www.w3.org/2000/svg" xmlns:xlink="http://www.w3.org/1999/xlink" x="0px" y="0px"
	 viewBox="0 0 25.6 35.6" style="enable-background:new 0 0 25.6 35.6;" xml:space="preserve">
<style type="text/css">
	.st0{fill:#FFFFFF;}
</style>
<g>
	<g>
		<path class="st0" d="M22.8,0L2.8,0C1.2,0,0,1.2,0,2.7l0,30.1c0,1.5,1.2,2.8,2.8,2.8l20.1,0c1.5,0,2.8-1.2,2.8-2.8l0-30.1
			C25.6,1.2,24.3,0,22.8,0L22.8,0z M24.5,32.8c0,0.9-0.8,1.7-1.7,1.7l-20.1,0c-0.9,0-1.7-0.8-1.7-1.7L1,2.7C1,1.8,1.8,1,2.8,1
			l20.1,0c0.9,0,1.7,0.8,1.7,1.7L24.5,32.8z M24.5,32.8"/>
		<path class="st0" d="M21,4.4l-16.4,0c-0.4,0-0.7,0.3-0.7,0.7l0,5.3c0,0.4,0.3,0.7,0.7,0.7l16.4,0c0.4,0,0.7-0.3,0.7-0.7l0-5.3
			C21.7,4.7,21.4,4.4,21,4.4L21,4.4z M20.6,10L4.9,10l0-4.5l15.7,0L20.6,10z M20.6,10"/>
		<path class="st0" d="M21,13.4l-16.4,0c-0.4,0-0.7,0.3-0.7,0.7l0,16.4c0,0.4,0.3,0.7,0.7,0.7l16.4,0c0.4,0,0.7-0.3,0.7-0.7l0-16.4
			C21.7,13.7,21.4,13.4,21,13.4L21,13.4z M10.5,24.5l0-4.5l4.5,0l0,4.5L10.5,24.5z M15.1,25.6l0,4.5l-4.5,0l0-4.5L15.1,25.6z
			 M4.9,20l4.5,0l0,4.5l-4.5,0L4.9,20z M10.5,18.9l0-4.5l4.5,0l0,4.5L10.5,18.9z M16.1,20l4.5,0l0,4.5l-4.5,0L16.1,20z M20.6,18.9
			l-4.5,0l0-4.5l4.5,0L20.6,18.9z M9.5,14.4l0,4.5l-4.5,0l0-4.5L9.5,14.4z M4.9,25.6l4.5,0l0,4.5l-4.5,0L4.9,25.6z M16.1,30.1l0-4.5
			l4.5,0l0,4.5L16.1,30.1z M16.1,30.1"/>
		<path class="st0" d="M14.5,8.8c0.3,0,0.5-0.2,0.5-0.5l0-1.1c0-0.3-0.2-0.5-0.5-0.5c-0.3,0-0.5,0.2-0.5,0.5l0,1.1
			C13.9,8.6,14.2,8.8,14.5,8.8L14.5,8.8z M14.5,8.8"/>
		<path class="st0" d="M16.7,8.8c0.3,0,0.5-0.2,0.5-0.5l0-1.1c0-0.3-0.2-0.5-0.5-0.5c-0.3,0-0.5,0.2-0.5,0.5l0,1.1
			C16.2,8.6,16.4,8.8,16.7,8.8L16.7,8.8z M16.7,8.8"/>
		<path class="st0" d="M18.9,8.8c0.3,0,0.5-0.2,0.5-0.5l0-1.1c0-0.3-0.2-0.5-0.5-0.5c-0.3,0-0.5,0.2-0.5,0.5l0,1.1
			C18.4,8.6,18.6,8.8,18.9,8.8L18.9,8.8z M18.9,8.8"/>
	</g>
</g>
</svg>
